# xmcd
#
# Track frame offsets:
#	150
#	17462
#	31094
#	51443
#	65697
#	80064
#	101059
#	117631
#	133945
#	150499
#	170407
#	186438
#	201756
#	219047
#
# Disc length: 3206 seconds
#
# Revision: 1
# Processed by: cddbd v1.5.2PL0 Copyright (c) Steve Scherf et al.
# Submitted via: dBpowerAMP V4.0
#
DISCID=c50c840e
DTITLE=Trio Jerimum - Meninos
DYEAR=2001
DGENRE=Folk
TTITLE0=Meninos
TTITLE1=Taturana
TTITLE2=Alcalino
TTITLE3=Sou do mundo
TTITLE4=Garotinha linda
TTITLE5=Te jurei
TTITLE6=O menino e a boneca
TTITLE7=Jerimum em Itaúnas
TTITLE8=Bundinha de tanajura
TTITLE9=Pau de atiradeira
TTITLE10=No deserto do meu peito
TTITLE11=Forró, cachaça e mulher
TTITLE12=Mentira cabeluda
TTITLE13=Tô berando
EXTD=
EXTT0=
EXTT1=
EXTT2=
EXTT3=
EXTT4=
EXTT5=
EXTT6=
EXTT7=
EXTT8=
EXTT9=
EXTT10=
EXTT11=
EXTT12=
EXTT13=
PLAYORDER=
